<?xml version="1.0" encoding="UTF-8"?>
<svg version="1.1" xmlns="http://www.w3.org/2000/svg" width="500" height="500">
<path d="M0 0 C3.21504327 0.38610363 6.43466388 0.6479041 9.66162109 0.91650391 C12.28282619 1.14832118 14.90391925 1.38140868 17.52490234 1.61572266 C19.42332886 1.77331055 19.42332886 1.77331055 21.36010742 1.93408203 C28.19576758 2.60075357 32.91365749 3.31483784 38.52490234 7.30322266 C39.98122977 8.25292035 41.43972228 9.19930294 42.89990234 10.14306641 C44.44317013 11.1732239 45.98481568 12.20581543 47.52490234 13.24072266 C48.67732422 14.00932617 48.67732422 14.00932617 49.85302734 14.79345703 C51.37490568 15.81192493 52.89066561 16.83960002 54.39990234 17.87670898 C55.70528981 18.75301631 57.03530465 19.59530835 58.39990234 20.3762207 C64.54791741 24.09950941 67.237568 30.04529165 70.52490234 36.24072266 C71.13430664 37.36285156 71.74371094 38.48498047 72.37158203 39.64111328 C74.10733997 42.85259052 75.81892485 46.07585402 77.52490234 49.30322266 C77.94964844 50.09229004 78.37439453 50.88135742 78.81201172 51.69433594 C82.43221092 58.4205379 85.3434282 64.68927816 86.52490234 72.30322266 C84.82333984 72.51978516 84.82333984 72.51978516 83.08740234 72.74072266 C79.71713033 72.91493743 79.71713033 72.91493743 78.52490234 74.30322266 C79.18490234 74.63322266 79.84490234 74.96322266 80.52490234 75.30322266 C80.52490234 75.96322266 80.52490234 76.62322266 80.52490234 77.30322266 C81.12302734 77.50947266 81.72115234 77.71572266 82.33740234 77.92822266 C86.72733556 80.68760925 88.28974045 86.45758755 89.52490234 91.30322266 C89.67805766 94.31198347 89.64527832 97.29382326 89.52490234 100.30322266 C88.53490234 100.79822266 88.53490234 100.79822266 87.52490234 101.30322266 C87.19490234 102.29322266 86.86490234 103.28322266 86.52490234 104.30322266 C83.10933094 106.10588534 80.35624734 106.52215666 76.52490234 106.30322266 C76.41855469 107.22361328 76.41855469 107.22361328 76.31005859 108.16259766 C75.52490234 110.30322266 75.52490234 110.30322266 73.64599609 111.56884766 C62.62425515 115.611757 51.09652937 114.66816965 39.52490234 114.30322266 C38.74535654 111.49574811 38.35388744 108.88292458 38.20849609 105.97509766 C38.1456543 104.77626953 38.1456543 104.77626953 38.08154297 103.55322266 C38.04222656 102.72822266 38.00291016 101.90322266 37.96240234 101.05322266 C37.91921875 100.21275391 37.87603516 99.37228516 37.83154297 98.50634766 C37.72581692 96.43881595 37.62488939 94.37103985 37.52490234 92.30322266 C42.14490234 92.30322266 46.76490234 92.30322266 51.52490234 92.30322266 C51.30833984 90.77310547 51.09177734 89.24298828 50.86865234 87.66650391 C50.58722413 85.64960168 50.30598397 83.63267321 50.02490234 81.61572266 C49.88181641 80.60832031 49.73873047 79.60091797 49.59130859 78.56298828 C49.45595703 77.58652344 49.32060547 76.61005859 49.18115234 75.60400391 C49.05546875 74.7085083 48.92978516 73.8130127 48.80029297 72.89038086 C48.52873718 70.33924905 48.47642337 67.86654835 48.52490234 65.30322266 C47.0366394 65.43954102 47.0366394 65.43954102 45.51831055 65.57861328 C41.77452337 65.91994874 38.03007544 66.25352056 34.28540039 66.58496094 C32.67649155 66.72841007 31.06775946 66.87385819 29.45922852 67.02148438 C19.77963468 67.90830288 10.25398285 68.53643555 0.52490234 68.30322266 C0.52490234 71.27322266 0.52490234 74.24322266 0.52490234 77.30322266 C-4.75423219 79.38709155 -9.87048235 79.88232269 -15.47509766 80.30322266 C-15.47509766 78.32322266 -15.47509766 76.34322266 -15.47509766 74.30322266 C-33.92749578 71.39021614 -33.92749578 71.39021614 -52.47509766 72.30322266 C-52.56146484 73.12177734 -52.64783203 73.94033203 -52.73681641 74.78369141 C-54.37570385 89.0525371 -56.967126 103.16686128 -59.47509766 117.30322266 C-86.07113273 116.87359725 -86.07113273 116.87359725 -93.67822266 110.43994141 C-95.59883497 108.15608285 -96.14837832 106.83025255 -96.66259766 103.92822266 C-96.80697266 103.14318359 -96.95134766 102.35814453 -97.10009766 101.54931641 C-97.22384766 100.80810547 -97.34759766 100.06689453 -97.47509766 99.30322266 C-97.70197266 98.21009766 -97.92884766 97.11697266 -98.16259766 95.99072266 C-98.47509766 93.30322266 -98.47509766 93.30322266 -97.98681641 91.51416016 C-97.11488062 87.74686509 -97.57141643 83.92316703 -97.73291016 80.08056641 C-97.47509766 77.30322266 -97.47509766 77.30322266 -96.13256836 76.01318359 C-93.85818106 73.666769 -92.95391952 71.1776616 -91.69775391 68.16650391 C-91.3188224 67.26909737 -91.3188224 67.26909737 -90.93223572 66.3535614 C-90.12708452 64.44377512 -89.33184416 62.53006658 -88.53759766 60.61572266 C-79.33239002 38.58907633 -79.33239002 38.58907633 -73.66259766 33.30322266 C-70.60398027 30.37428349 -67.65725265 27.46633355 -64.91259766 24.24072266 C-64.34541016 23.60134766 -63.77822266 22.96197266 -63.19384766 22.30322266 C-61.43215611 20.30402347 -61.43215611 20.30402347 -59.81884766 18.05322266 C-52.95005052 9.7205835 -43.29144298 7.81489605 -33.27587891 5.08642578 C-30.68194447 4.36106476 -28.12809252 3.56347097 -25.56884766 2.72509766 C-16.6978263 -0.118009 -9.35774516 -1.25399495 0 0 Z M-1.47509766 11.30322266 C-0.47509766 13.30322266 -0.47509766 13.30322266 -0.47509766 13.30322266 Z M-19.47509766 18.30322266 C-18.47509766 20.30322266 -18.47509766 20.30322266 -18.47509766 20.30322266 Z M10.52490234 22.30322266 C11.52490234 24.30322266 11.52490234 24.30322266 11.52490234 24.30322266 Z M-14.47509766 25.30322266 C-13.47509766 27.30322266 -13.47509766 27.30322266 -13.47509766 27.30322266 Z M50.52490234 29.30322266 C51.18490234 29.96322266 51.84490234 30.62322266 52.52490234 31.30322266 C52.52490234 30.64322266 52.52490234 29.98322266 52.52490234 29.30322266 C51.86490234 29.30322266 51.20490234 29.30322266 50.52490234 29.30322266 Z M-13.47509766 49.30322266 C-12.47509766 51.30322266 -12.47509766 51.30322266 -12.47509766 51.30322266 Z M-26.47509766 58.30322266 C-25.47509766 60.30322266 -25.47509766 60.30322266 -25.47509766 60.30322266 Z M51.52490234 75.30322266 C51.52490234 75.63322266 51.52490234 75.96322266 51.52490234 76.30322266 C53.48293741 76.35711353 55.44139143 76.39596483 57.39990234 76.42822266 C58.49044922 76.45142578 59.58099609 76.47462891 60.70458984 76.49853516 C63.66200744 76.60382799 63.66200744 76.60382799 65.52490234 74.30322266 C60.80303439 74.15090434 56.20200706 74.7325955 51.52490234 75.30322266 Z " fill="#FBAF06" transform="translate(245.47509765625,154.69677734375)"/>
<path d="M0 0 C9.88608754 0.03986326 19.75037168 0.71704642 29.5 2.375 C30.19867188 2.48875977 30.89734375 2.60251953 31.6171875 2.71972656 C35.4303732 3.42622095 38.2199417 4.23356943 41 7 C41.495 8.485 41.495 8.485 42 10 C58.17 11.65 74.34 13.3 91 15 C91.33 13.68 91.66 12.36 92 11 C112.68618481 10.47849954 112.68618481 10.47849954 121 13 C122.44921875 14.953125 122.44921875 14.953125 123 17 C122.67 17.66 122.34 18.32 122 19 C122.98863037 19.04825928 123.97726074 19.09651855 124.99584961 19.14624023 C136.56193747 19.74842308 148.04753052 20.83914861 159.5625 22.0625 C161.36389569 22.25100116 163.16532787 22.43915394 164.96679688 22.62695312 C169.31162709 23.08063929 173.6559431 23.53897058 178 24 C178.02039825 26.53259354 178.03520066 29.06501953 178.046875 31.59765625 C178.05630127 32.66143494 178.05630127 32.66143494 178.06591797 33.7467041 C178.10383955 44.74712282 176.43454665 55.28723668 169.75 64.3125 C164.48687458 69.45600893 158.29144869 71.38624 151.3125 73.34375 C149.47767734 73.86444292 147.66953039 74.47896906 145.875 75.125 C135.99478373 78.13202234 125.2027119 77.40325995 115.0625 76.3125 C113.83660156 76.18488281 112.61070312 76.05726563 111.34765625 75.92578125 C108 75 108 75 105.78442383 72.56835938 C102.42782713 69.47222634 99.45701749 68.75294071 95.1015625 67.98046875 C93.97178482 67.75802238 93.97178482 67.75802238 92.81918335 67.53108215 C91.23242645 67.22236528 89.64385379 66.92285366 88.05371094 66.63208008 C85.63568491 66.18945589 83.22428875 65.71946563 80.8125 65.24414062 C79.26333097 64.946299 77.71385993 64.65002307 76.1640625 64.35546875 C75.45029449 64.21803757 74.73652649 64.08060638 74.00112915 63.93901062 C68.2724219 62.90050585 63.13618424 62.38966165 57.5 64 C48.80478844 66.48434616 41.13510232 63.63030277 32.75 61.1875 C31.45850454 60.82686027 30.16683901 60.46682901 28.875 60.10742188 C27.65296875 59.75615234 26.4309375 59.40488281 25.171875 59.04296875 C24.0590918 58.72352295 22.94630859 58.40407715 21.79980469 58.07495117 C18.07054372 56.64314649 16.61207679 55.19193901 14.8125 51.6875 C13.04780021 49.07087618 11.77339007 47.97672456 9.25 46.1875 C1.13582528 40.31068963 -3.66643897 33.8315604 -6 24 C-6.89266018 17.8497822 -7.47090535 12.08573053 -6 6 C-4.68 6 -3.36 6 -2 6 C-1.855625 5.195625 -1.71125 4.39125 -1.5625 3.5625 C-1 1 -1 1 0 0 Z " fill="#FBAF05" transform="translate(157,281)"/>
<path d="M0 0 C1.1653125 -0.00257813 2.330625 -0.00515625 3.53125 -0.0078125 C6.5 0.125 6.5 0.125 8.5 1.125 C8.5 1.785 8.5 2.445 8.5 3.125 C9.098125 3.33125 9.69625 3.5375 10.3125 3.75 C14.70243322 6.50938659 16.26483811 12.27936489 17.5 17.125 C17.65315531 20.13376081 17.62037598 23.11560061 17.5 26.125 C16.51 26.62 16.51 26.62 15.5 27.125 C15.005 28.61 15.005 28.61 14.5 30.125 C11.08442859 31.92766269 8.33134499 32.343934 4.5 32.125 C4.42910156 32.73859375 4.35820312 33.3521875 4.28515625 33.984375 C3.5 36.125 3.5 36.125 1.62109375 37.390625 C-9.4006472 41.43353434 -20.92837297 40.489947 -32.5 40.125 C-33.2795458 37.31752545 -33.6710149 34.70470192 -33.81640625 31.796875 C-33.85830078 30.99765625 -33.90019531 30.1984375 -33.94335938 29.375 C-33.98267578 28.55 -34.02199219 27.725 -34.0625 26.875 C-34.10568359 26.03453125 -34.14886719 25.1940625 -34.19335938 24.328125 C-34.29908543 22.26059329 -34.40001295 20.19281719 -34.5 18.125 C-29.88 18.125 -25.26 18.125 -20.5 18.125 C-20.83 12.845 -21.16 7.565 -21.5 2.125 C-18.1796875 1.89713542 -14.859375 1.66927083 -11.5390625 1.44140625 C-7.43916258 1.01455292 -4.28767246 -0.009486 0 0 Z " fill="#8C6148" transform="translate(317.5,228.875)"/>
<path d="M0 0 C0.68400879 0.00201416 1.36801758 0.00402832 2.07275391 0.00610352 C4.61627962 0.01653011 7.15970938 0.04445269 9.703125 0.0703125 C15.395625 0.1115625 21.088125 0.1528125 26.953125 0.1953125 C24.973125 12.0753125 22.993125 23.9553125 20.953125 36.1953125 C-5.94522699 35.51000417 -5.94522699 35.51000417 -13.25 29.33203125 C-15.17061231 27.04817269 -15.72015567 25.72234239 -16.234375 22.8203125 C-16.37875 22.03527344 -16.523125 21.25023437 -16.671875 20.44140625 C-16.795625 19.70019531 -16.919375 18.95898438 -17.046875 18.1953125 C-17.27375 17.1021875 -17.500625 16.0090625 -17.734375 14.8828125 C-18.04021142 12.25261926 -18.12174763 10.61377592 -17.046875 8.1953125 C-16.056875 7.8653125 -15.066875 7.5353125 -14.046875 7.1953125 C-13.7375 6.3909375 -13.428125 5.5865625 -13.109375 4.7578125 C-12.046875 2.1953125 -12.046875 2.1953125 -10.48339844 1.04736328 C-7.00785225 -0.16803313 -3.63480512 -0.05058298 0 0 Z " fill="#8C6148" transform="translate(165.046875,235.8046875)"/>
<path d="M0 0 C-0.28109113 1.64767247 -0.57518526 3.29313145 -0.875 4.9375 C-1.03742188 5.85402344 -1.19984375 6.77054688 -1.3671875 7.71484375 C-1.57601562 8.46894531 -1.78484375 9.22304687 -2 10 C-4.72842061 11.36421031 -6.60953318 10.87807211 -9.625 10.5625 C-10.62789062 10.46066406 -11.63078125 10.35882813 -12.6640625 10.25390625 C-13.43492187 10.17011719 -14.20578125 10.08632812 -15 10 C-15.33 12.31 -15.66 14.62 -16 17 C-12.04 17.99 -8.08 18.98 -4 20 C-4.33 23.63 -4.66 27.26 -5 31 C-8.94451397 31.98612849 -10.43186434 31.91655666 -14.25 31.0625 C-15.14203125 30.86785156 -16.0340625 30.67320312 -16.953125 30.47265625 C-17.96632812 30.23869141 -17.96632812 30.23869141 -19 30 C-19.66 32.97 -20.32 35.94 -21 39 C-16.71 39.66 -12.42 40.32 -8 41 C-7.92557943 44.86986958 -7.95297814 48.2735915 -9 52 C-18.10506018 50.7144018 -27.03081643 49.01705777 -36 47 C-34.42146689 35.02624882 -32.56119883 23.12890084 -30.375 11.25 C-30.04786011 9.45598755 -30.04786011 9.45598755 -29.71411133 7.62573242 C-29.40316528 5.96247925 -29.40316528 5.96247925 -29.0859375 4.265625 C-28.9007959 3.27336914 -28.7156543 2.28111328 -28.52490234 1.25878906 C-28 -1 -28 -1 -27 -2 C-18.18292363 -4.00388099 -8.49102573 -2.96198572 0 0 Z " fill="#010101" transform="translate(225,233)"/>
<path d="M0 0 C4.29 15.18 8.58 30.36 13 46 C12 47 12 47 9.27734375 47.09765625 C8.17519531 47.08605469 7.07304687 47.07445312 5.9375 47.0625 C4.83277344 47.05347656 3.72804687 47.04445313 2.58984375 47.03515625 C1.73519531 47.02355469 0.88054687 47.01195312 0 47 C-0.33 44.69 -0.66 42.38 -1 40 C-3.31 40 -5.62 40 -8 40 C-8 42.64 -8 45.28 -8 48 C-11.01490557 49.00496852 -13.04181692 49.10335303 -16.1875 49.0625 C-17.08855469 49.05347656 -17.98960937 49.04445313 -18.91796875 49.03515625 C-19.60503906 49.02355469 -20.29210937 49.01195312 -21 49 C-20.36670259 33.30089059 -19.27901863 17.6591349 -18 2 C-16.50234679 1.65627631 -15.00168326 1.32566625 -13.5 1 C-12.6646875 0.814375 -11.829375 0.62875 -10.96875 0.4375 C-8 0 -8 0 0 0 Z M-7 20 C-7.33 24.29 -7.66 28.58 -8 33 C-6.68 33 -5.36 33 -4 33 C-4.11509661 31.58249437 -4.24253658 30.16598831 -4.375 28.75 C-4.44460937 27.96109375 -4.51421875 27.1721875 -4.5859375 26.359375 C-4.95029348 23.62295367 -4.95029348 23.62295367 -7 20 Z " fill="#000000" transform="translate(249,237)"/>
<path d="M0 0 C0.66 4.29 1.32 8.58 2 13 C-2.62 13 -7.24 13 -12 13 C-11.67 14.32 -11.34 15.64 -11 17 C-10.77032563 19.74659738 -10.57998273 22.47957275 -10.4296875 25.23046875 C-10.36166428 26.41700798 -10.36166428 26.41700798 -10.29226685 27.6275177 C-10.19793472 29.29413079 -10.10560094 30.96085803 -10.01513672 32.62768555 C-9.87491406 35.18906975 -9.72492543 37.74976064 -9.57421875 40.31054688 C-9.48378414 41.92965461 -9.39392038 43.54879434 -9.3046875 45.16796875 C-9.23602982 46.32258858 -9.23602982 46.32258858 -9.16598511 47.50053406 C-9.07052491 49.33203808 -9.02962613 51.16624922 -9 53 C-10.81115956 54.81115956 -13.61278227 54.38199448 -16.0625 54.5625 C-17.16722656 54.64628906 -18.27195312 54.73007812 -19.41015625 54.81640625 C-20.26480469 54.87699219 -21.11945313 54.93757813 -22 55 C-23.41264685 41.33984207 -24.43992391 27.72186429 -25 14 C-27.97 14 -30.94 14 -34 14 C-35.41404314 10.19975907 -36.34892324 7.07077118 -36 3 C-34.23641091 1.23641091 -31.67764839 1.64023887 -29.27734375 1.46484375 C-28.09849609 1.37783203 -26.91964844 1.29082031 -25.70507812 1.20117188 C-24.46177734 1.11416016 -23.21847656 1.02714844 -21.9375 0.9375 C-20.72126953 0.84662109 -19.50503906 0.75574219 -18.25195312 0.66210938 C-12.15193325 0.22190176 -6.11573589 -0.11452689 0 0 Z " fill="#010101" transform="translate(288,227)"/>
<path d="M0 0 C0.80695313 0.05736328 1.61390625 0.11472656 2.4453125 0.17382812 C8.27606068 0.62123702 8.27606068 0.62123702 10.97753906 1.33496094 C13.23376102 1.86769514 15.23021253 1.92580937 17.546875 1.91015625 C18.39121094 1.90693359 19.23554688 1.90371094 20.10546875 1.90039062 C20.97816406 1.89201172 21.85085937 1.88363281 22.75 1.875 C23.63816406 1.87048828 24.52632812 1.86597656 25.44140625 1.86132812 C27.62767329 1.849574 29.81380179 1.83314249 32 1.8125 C32 2.8025 32 3.7925 32 4.8125 C33.98 4.8125 35.96 4.8125 38 4.8125 C37.54548816 6.54267508 37.08621143 8.27159877 36.625 10 C36.24214844 11.44439453 36.24214844 11.44439453 35.8515625 12.91796875 C35.04287585 15.66676144 34.26940727 18.24172196 33 20.8125 C32.01 21.1425 31.02 21.4725 30 21.8125 C29.34 21.1525 28.68 20.4925 28 19.8125 C26.68 21.4625 25.36 23.1125 24 24.8125 C25.2684375 26.17375 25.2684375 26.17375 26.5625 27.5625 C29.02603251 30.48275483 29.02603251 30.48275483 28.8125 33.1875 C28.544375 33.72375 28.27625 34.26 28 34.8125 C25.62721536 34.63673817 24.30795671 34.13388506 22.65625 32.41015625 C21.42433413 30.88816717 20.21118764 29.35103565 19 27.8125 C18.67 27.8125 18.34 27.8125 18 27.8125 C17.01 31.2775 17.01 31.2775 16 34.8125 C14.02 35.3075 14.02 35.3075 12 35.8125 C11.59502131 28.76287093 12.0916604 22.33531927 15 15.8125 C16.60546875 14.02734375 16.60546875 14.02734375 18 12.8125 C14.01850493 14.1037957 12.16953027 15.22805869 10 18.8125 C8.99332065 20.86661495 8.0061558 22.92390595 7.0625 25.0078125 C6 26.8125 6 26.8125 3 28.8125 C-3.2081448 29.36679864 -3.2081448 29.36679864 -5.875 27.5 C-8.09622261 24.16816609 -8.16162078 21.13705848 -8.1875 17.25 C-8.20167969 16.27933594 -8.21585938 15.30867188 -8.23046875 14.30859375 C-8 11.8125 -8 11.8125 -6 9.8125 C-5.01 9.8125 -4.02 9.8125 -3 9.8125 C-2.67 14.1025 -2.34 18.3925 -2 22.8125 C-0.68 22.8125 0.64 22.8125 2 22.8125 C3.66489182 18.88811214 4.87204037 14.92149581 6 10.8125 C2.9254644 11.5888932 2.9254644 11.5888932 1 13.8125 C1 13.1525 1 12.4925 1 11.8125 C0.34 11.8125 -0.32 11.8125 -1 11.8125 C-1.33 11.1525 -1.66 10.4925 -2 9.8125 C-4.3140622 9.08174352 -6.64828869 8.41111742 -9 7.8125 C-9.33 8.8025 -9.66 9.7925 -10 10.8125 C-10 9.8225 -10 8.8325 -10 7.8125 C-10.99 7.4825 -11.98 7.1525 -13 6.8125 C-13 3.8125 -13 3.8125 -11.5625 1.61328125 C-7.73803261 -1.07433989 -4.51699452 -0.42933095 0 0 Z " fill="#FBAF03" transform="translate(216,294.1875)"/>
<path d="M0 0 C0.04254356 1.99954746 0.04080783 4.00041636 0 6 C-1 7 -1 7 -4.5 7.4375 C-6.2325 7.7159375 -6.2325 7.7159375 -8 8 C-8.33 8.66 -8.66 9.32 -9 10 C-6.03 10 -3.06 10 0 10 C0 10.66 0 11.32 0 12 C0.99 12 1.98 12 3 12 C2.79375 11.236875 2.5875 10.47375 2.375 9.6875 C2 7 2 7 4 4 C7.125 3.3125 7.125 3.3125 10 3 C10.15639125 8.06316683 9.62766071 12.50398438 8.5 17.4375 C8.2215625 18.67371094 7.943125 19.90992188 7.65625 21.18359375 C7.4396875 22.11300781 7.223125 23.04242188 7 24 C3.25 25.125 3.25 25.125 1 24 C0.67 23.01 0.34 22.02 0 21 C0 22.65 0 24.3 0 26 C-0.99 26.33 -1.98 26.66 -3 27 C-3.309375 26.38125 -3.61875 25.7625 -3.9375 25.125 C-6.30058732 22.69030398 -7.25298658 22.58076663 -10.5 22 C-14.77083333 21.1875 -14.77083333 21.1875 -17.0625 19.3125 C-18.42067737 15.96232916 -18.43308952 13.58845604 -18 10 C-13.55795672 1.6094738 -9.12425871 -0.71562813 0 0 Z " fill="#FEAA11" transform="translate(267,306)"/>
<path d="M0 0 C1.35097778 0.12846313 1.35097778 0.12846313 2.72924805 0.25952148 C3.73197754 0.34717773 4.73470703 0.43483398 5.76782227 0.52514648 C6.83145996 0.64245117 7.89509766 0.75975586 8.9909668 0.88061523 C10.07007324 0.98631836 11.14917969 1.09202148 12.26098633 1.20092773 C33.80948079 3.44912922 33.80948079 3.44912922 37.6784668 7.31811523 C37.8659668 9.88061523 37.8659668 9.88061523 37.6784668 12.31811523 C36.04573671 13.95084532 34.24427589 13.48670063 31.9909668 13.50170898 C25.11901858 13.43836794 18.45579519 12.44858029 11.6784668 11.38061523 C9.85895508 11.10701172 9.85895508 11.10701172 8.00268555 10.82788086 C-0.85781757 9.47268711 -0.85781757 9.47268711 -4.3215332 8.31811523 C-5.1965332 6.50561523 -5.1965332 6.50561523 -5.3215332 4.31811523 C-3.81951847 1.59491484 -3.15598734 0.43245888 0 0 Z " fill="#E62B25" transform="translate(293.321533203125,272.681884765625)"/>
<path d="M0 0 C9.88608754 0.03986326 19.75037168 0.71704642 29.5 2.375 C30.19867188 2.48875977 30.89734375 2.60251953 31.6171875 2.71972656 C35.43429728 3.42694799 38.18922711 4.26575806 41 7 C41.75 9.1875 41.75 9.1875 42 11 C34.24888252 14.87555874 21.57072409 11.45786862 13.375 10.125 C12.21871094 9.95097656 11.06242188 9.77695312 9.87109375 9.59765625 C1.39326299 8.26217532 1.39326299 8.26217532 -2 6 C-1.125 1.125 -1.125 1.125 0 0 Z " fill="#EB2922" transform="translate(157,281)"/>
<path d="M0 0 C9.78935379 -0.61719218 9.78935379 -0.61719218 14.1875 1.625 C16.46351526 4.60736483 16.4165657 6.33422184 16 10 C14.02 10.99 14.02 10.99 12 12 C12.103125 12.9075 12.20625 13.815 12.3125 14.75 C12 18 12 18 9.9375 20.375 C6.30290142 22.385629 4.0970688 22.53110151 0 22 C-1.9375 21 -1.9375 21 -3 19 C-3.72316246 12.25048369 -1.98362987 6.42318245 0 0 Z " fill="#840D00" transform="translate(189,300)"/>
<path d="M0 0 C1.72323396 0.19336297 3.44654101 0.38607573 5.16992188 0.578125 C9.34332677 1.04460642 13.51564954 1.51982375 17.6875 2 C17.6875 2.33 17.6875 2.66 17.6875 3 C14.77077116 3.02700675 11.85429323 3.04684237 8.9375 3.0625 C8.1125 3.07087891 7.2875 3.07925781 6.4375 3.08789062 C5.23867187 3.09272461 5.23867187 3.09272461 4.015625 3.09765625 C2.91589355 3.10551147 2.91589355 3.10551147 1.79394531 3.11352539 C-0.36818558 2.99699886 -2.22017897 2.53738323 -4.3125 2 C-5.752235 1.85966422 -7.19587149 1.75583143 -8.640625 1.68359375 C-9.83945313 1.62075195 -9.83945313 1.62075195 -11.0625 1.55664062 C-12.3 1.49766602 -12.3 1.49766602 -13.5625 1.4375 C-14.40296875 1.39431641 -15.2434375 1.35113281 -16.109375 1.30664062 C-18.17690671 1.20091457 -20.24468281 1.09998705 -22.3125 1 C-22.6425 1.99 -22.9725 2.98 -23.3125 4 C-24.3025 4 -25.2925 4 -26.3125 4 C-25.9825 4.99 -25.6525 5.98 -25.3125 7 C-22.0125 7.66 -18.7125 8.32 -15.3125 9 C-14.9825 9.99 -14.6525 10.98 -14.3125 12 C-13.755625 11.855625 -13.19875 11.71125 -12.625 11.5625 C-10.19865805 10.97230872 -7.76343655 10.476571 -5.3125 10 C-5.9725 10.66 -6.6325 11.32 -7.3125 12 C-7.91692584 14.09766105 -7.91692584 14.09766105 -8.3125 16.4375 C-8.91707053 19.71405634 -9.399471 21.1304565 -11.3125 24 C-12.9625 23.67 -14.6125 23.34 -16.3125 23 C-16.3125 18.71 -16.3125 14.42 -16.3125 10 C-18.2925 10.99 -18.2925 10.99 -20.3125 12 C-20.77410638 20.90981902 -20.77410638 20.90981902 -17.3125 29 C-19.2925 28.67 -21.2725 28.34 -23.3125 28 C-23.3125 24.37 -23.3125 20.74 -23.3125 17 C-24.9625 18.65 -26.6125 20.3 -28.3125 22 C-28.3125 20.68 -28.3125 19.36 -28.3125 18 C-27.3225 17.34 -26.3325 16.68 -25.3125 16 C-24.72904524 13.04253508 -24.72904524 13.04253508 -25.3125 10 C-28.37256607 6.42992292 -32.90203695 5.95560033 -37.3125 5 C-36.3225 4.01 -35.3325 3.02 -34.3125 2 C-35.80993119 0.50256881 -37.30074239 0.66797307 -39.375 0.4375 C-40.674375 0.293125 -41.97375 0.14875 -43.3125 0 C-43.3125 -0.33 -43.3125 -0.66 -43.3125 -1 C-28.62491766 -2.64830583 -14.61091447 -1.68484183 0 0 Z " fill="#F5AE1A" transform="translate(229.3125,294)"/>
<path d="M0 0 C0.3359375 2.19921875 0.3359375 2.19921875 0 5 C-2.2734375 7.39453125 -2.2734375 7.39453125 -5.375 9.8125 C-5.91431152 10.24046875 -6.45362305 10.6684375 -7.00927734 11.109375 C-8.12025765 11.98902343 -9.23636655 12.86223199 -10.35742188 13.72900391 C-12.80426016 15.6223214 -15.21229377 17.56348579 -17.625 19.5 C-18.81996094 20.44359375 -18.81996094 20.44359375 -20.0390625 21.40625 C-22.06801891 22.99951893 -22.06801891 22.99951893 -24 25 C-26.5625 25.1875 -26.5625 25.1875 -29 25 C-29.33 24.67 -29.66 24.34 -30 24 C-29.84935787 20.08330459 -29.50013085 17.66684114 -27.125 14.5 C-22.86243715 10.75485808 -17.84667096 7.91065465 -13 5 C-11.72576172 4.22849609 -11.72576172 4.22849609 -10.42578125 3.44140625 C-4.5276204 0 -4.5276204 0 0 0 Z " fill="#F5B015" transform="translate(139,256)"/>
<path d="M0 0 C-1.39240419 4.17721256 -3.6208021 4.72747098 -7.38867188 6.71582031 C-11.60498162 8.78928602 -15.89181107 10.62253547 -20.25 12.375 C-21.12140625 12.74238281 -21.9928125 13.10976563 -22.890625 13.48828125 C-23.73625 13.82988281 -24.581875 14.17148437 -25.453125 14.5234375 C-26.20754883 14.83200684 -26.96197266 15.14057617 -27.73925781 15.45849609 C-30.45936294 16.11002883 -32.32295828 15.71556889 -35 15 C-35.8125 13.3125 -35.8125 13.3125 -36 11 C-30.36530231 2.33123433 -16.3107765 1.50082062 -6.99609375 -0.58203125 C-4.2114765 -0.97049806 -2.60991072 -0.93803637 0 0 Z " fill="#F8B10D" transform="translate(133,250)"/>
<path d="M0 0 C2.57049028 1.01466722 3.87583464 1.605465 5.375 3.9375 C5.17750247 7.78870178 3.84242938 10.04095247 1.375 12.9375 C2.220625 13.845 3.06625 14.7525 3.9375 15.6875 C6.40103251 18.60775483 6.40103251 18.60775483 6.1875 21.3125 C5.919375 21.84875 5.65125 22.385 5.375 22.9375 C1.85308373 22.67661731 1.16224732 21.69435408 -1.25 18.9375 C-2.03375 17.9475 -2.8175 16.9575 -3.625 15.9375 C-4.285 15.6075 -4.945 15.2775 -5.625 14.9375 C-5.58375 15.865625 -5.5425 16.79375 -5.5 17.75 C-5.625 20.9375 -5.625 20.9375 -7.625 23.9375 C-8.945 23.6075 -10.265 23.2775 -11.625 22.9375 C-11.15498005 15.17406698 -10.65637166 7.28796342 -5.25 1.3125 C-2.625 -0.0625 -2.625 -0.0625 0 0 Z " fill="#810601" transform="translate(289.625,311.0625)"/>
<path d="M0 0 C2 3 2 3 1.8125 6 C0.99790027 9.00775285 0.4044979 10.11821903 -2 12 C-1.154375 12.9075 -0.30875 13.815 0.5625 14.75 C3.02603251 17.67025483 3.02603251 17.67025483 2.8125 20.375 C2.544375 20.91125 2.27625 21.4475 2 22 C-0.37278464 21.82423817 -1.69204329 21.32138506 -3.34375 19.59765625 C-4.57566587 18.07566717 -5.78881236 16.53853565 -7 15 C-7.33 15 -7.66 15 -8 15 C-8.66 17.31 -9.32 19.62 -10 22 C-11.32 22.33 -12.64 22.66 -14 23 C-14.46722124 14.86688951 -14.2123543 6.73327662 -8.6875 0.3125 C-5.26770411 -1.35763288 -3.58116956 -1.19372319 0 0 Z " fill="#870E01" transform="translate(242,307)"/>
<path d="M0 0 C5.27478168 3.74139621 9.11160272 8.38423714 12.8125 13.625 C13.28880859 14.27984375 13.76511719 14.9346875 14.25585938 15.609375 C20 23.59138757 20 23.59138757 20 29 C17.3125 29 17.3125 29 14 28 C12.85522461 26.41381836 12.85522461 26.41381836 11.77734375 24.40234375 C8.95253774 19.62665776 5.36696719 16.23128097 1.25 12.5625 C0.56550781 11.93923828 -0.11898437 11.31597656 -0.82421875 10.67382812 C-2.07523315 9.53552889 -3.32971524 8.40101969 -4.58886719 7.27172852 C-5.40915557 6.53247554 -6.21917736 5.78082264 -7 5 C-7.04063832 3.33382885 -7.042721 1.66611905 -7 0 C-4.14256951 -1.42871525 -3.0411049 -1.01370163 0 0 Z " fill="#F5B119" transform="translate(121,217)"/>
<path d="M0 0 C7.19518974 -0.38636784 12.59300725 0.81093603 19.3125 3.3125 C20.19228516 3.62123047 21.07207031 3.92996094 21.97851562 4.24804688 C26.11266103 5.7391016 29.65260855 7.06266756 33 10 C33 10.66 33 11.32 33 12 C26.87928451 13.30919936 21.94485677 12.50995772 15.875 11.1875 C14.99457031 11.00896484 14.11414063 10.83042969 13.20703125 10.64648438 C2.38597772 8.38597772 2.38597772 8.38597772 -1 5 C-0.625 2.375 -0.625 2.375 0 0 Z " fill="#F8B10F" transform="translate(100,233)"/>
<path d="M0 0 C0.33 1.65 0.66 3.3 1 5 C-0.60875 5.12375 -0.60875 5.12375 -2.25 5.25 C-6.3316667 6.06633334 -7.69175187 6.58379277 -10 10 C-10.33448259 13.167832 -10.33448259 13.167832 -10 16 C-9.01 16 -8.02 16 -7 16 C-7.33 14.35 -7.66 12.7 -8 11 C-1.84765625 10.90234375 -1.84765625 10.90234375 0 11 C1 12 1 12 1.25 14.8125 C1 18 1 18 0.0625 20.375 C-2.83468937 22.65763405 -5.15012156 22.62244511 -8.76953125 22.4453125 C-11 22 -11 22 -14.0625 19.9375 C-16.51770931 16.21508588 -16.69274338 14.38737473 -16 10 C-12.15719943 2.7413767 -8.35115525 -0.65499257 0 0 Z " fill="#840F00" transform="translate(265,306)"/>
<path d="M0 0 C0.43243116 5.43506615 -0.98174351 9.11040971 -3.1875 13.9375 C-3.47947266 14.61490234 -3.77144531 15.29230469 -4.07226562 15.99023438 C-6.20926526 20.78354753 -8.83884568 24.81242597 -12 29 C-13.65 28.67 -15.3 28.34 -17 28 C-18.10258944 24.64812809 -18.0505478 23.14187652 -16.84765625 19.765625 C-6.81111111 0 -6.81111111 0 0 0 Z " fill="#F4B015" transform="translate(138,265)"/>
<path d="M0 0 C1.00417969 -0.00257813 2.00835937 -0.00515625 3.04296875 -0.0078125 C4.62271484 0.00378906 4.62271484 0.00378906 6.234375 0.015625 C7.27207031 0.00789063 8.30976563 0.00015625 9.37890625 -0.0078125 C14.62827736 0.00559586 19.08469046 0.13679654 23.984375 2.265625 C23.654375 3.915625 23.324375 5.565625 22.984375 7.265625 C13.24913212 7.40062837 3.68615729 7.0265491 -6.015625 6.265625 C-6.640625 4.390625 -6.640625 4.390625 -7.015625 2.265625 C-4.47005693 -0.27994307 -3.52755325 0.00869774 0 0 Z " fill="#68A459" transform="translate(164.015625,272.734375)"/>
<path d="M0 0 C0.99 0 1.98 0 3 0 C3.33 4.29 3.66 8.58 4 13 C5.32 13 6.64 13 8 13 C9.61064629 9.34920174 10.44894091 5.9492568 11 2 C12.65 2 14.3 2 16 2 C16.48975968 7.87711622 15.37071448 12.09611773 12 17 C8.30513897 19.46324069 6.36706908 19.38991688 2 19 C-0.61593153 17.16884793 -0.96989455 16.09031634 -2 13 C-2.11829437 11.1485555 -2.17514861 9.29267862 -2.1875 7.4375 C-2.20167969 6.46683594 -2.21585938 5.49617188 -2.23046875 4.49609375 C-2 2 -2 2 0 0 Z " fill="#881201" transform="translate(210,304)"/>
<path d="M0 0 C20.68618481 -0.52150046 20.68618481 -0.52150046 29 2 C30.38671875 4.078125 30.38671875 4.078125 31 6 C30 7 30 7 27.47143555 7.0534668 C23.87633201 6.94107869 20.28186787 6.82157708 16.6875 6.6875 C15.43775391 6.65205078 14.18800781 6.61660156 12.90039062 6.58007812 C11.69962891 6.53689453 10.49886719 6.49371094 9.26171875 6.44921875 C8.15787842 6.41143311 7.05403809 6.37364746 5.91674805 6.3347168 C3.11334811 6.01300747 1.39248328 5.4455116 -1 4 C-0.67 2.68 -0.34 1.36 0 0 Z " fill="#5BAD46" transform="translate(249,292)"/>
<path d="M0 0 C0.33 0.66 0.66 1.32 1 2 C0.0625 4.125 0.0625 4.125 -1 6 C-1.99 5.67 -2.98 5.34 -4 5 C-2.68 3.35 -1.36 1.7 0 0 Z M-7 3 C-6.67 3.99 -6.34 4.98 -6 6 C-5.34 6 -4.68 6 -4 6 C-3.67 7.32 -3.34 8.64 -3 10 C-1.73027344 9.98839844 -0.46054688 9.97679687 0.84765625 9.96484375 C11.28568758 9.89973322 21.59652883 10.11728123 32 11 C32 8.69 32 6.38 32 4 C32.66 3.67 33.32 3.34 34 3 C33.67 5.97 33.34 8.94 33 12 C31.44104004 12.029729 31.44104004 12.029729 29.85058594 12.06005859 C25.98885164 12.13622124 22.1274889 12.224922 18.26611328 12.31738281 C16.59594059 12.35562857 14.92568677 12.39048915 13.25537109 12.421875 C10.85224443 12.46762161 8.44967416 12.52559925 6.046875 12.5859375 C5.30193787 12.59748871 4.55700073 12.60903992 3.78948975 12.62094116 C-1.42297712 12.75894845 -1.42297712 12.75894845 -6 15 C-7.28254644 17.53770003 -7.28254644 17.53770003 -8 20 C-8.66 20 -9.32 20 -10 20 C-10.24900646 18.06494977 -10.47356242 16.12674066 -10.6875 14.1875 C-10.81511719 13.10855469 -10.94273437 12.02960938 -11.07421875 10.91796875 C-11 8 -11 8 -9.58203125 6.23828125 C-9.05996094 5.82964844 -8.53789062 5.42101562 -8 5 C-7.67 4.34 -7.34 3.68 -7 3 Z " fill="#F2AA17" transform="translate(159,224)"/>
<path d="M0 0 C2.87603344 0.28338275 5.75053851 0.57641253 8.625 0.875 C9.43324219 0.95363281 10.24148438 1.03226562 11.07421875 1.11328125 C15.63499049 1.59531404 19.68545585 2.3384118 24 4 C24 5.32 24 6.64 24 8 C20.38883686 8.90208822 17.76993912 8.99618059 14.13671875 8.22265625 C12.80737305 7.94711914 12.80737305 7.94711914 11.45117188 7.66601562 C10.0831543 7.36727539 10.0831543 7.36727539 8.6875 7.0625 C7.75615234 6.86720703 6.82480469 6.67191406 5.86523438 6.47070312 C3.57483581 5.98913215 1.28672729 5.49866228 -1 5 C-0.67 3.35 -0.34 1.7 0 0 Z " fill="#DA3027" transform="translate(303,290)"/>
<path d="M0 0 C3.63 0 7.26 0 11 0 C11 0.33 11 0.66 11 1 C10.40832031 1.07476562 9.81664062 1.14953125 9.20703125 1.2265625 C4.88107167 1.94637959 1.87247687 2.52591293 -1 6 C-3.91445402 10.37168102 -4.45847329 12.68170982 -4 18 C-2.2287382 20.35522225 -2.2287382 20.35522225 0 22 C0.66 22.66 1.32 23.32 2 24 C-0.31 23.67 -2.62 23.34 -5 23 C-5 22.01 -5 21.02 -5 20 C-5.99 20 -6.98 20 -8 20 C-8.33 20.99 -8.66 21.98 -9 23 C-10.46484375 20.41210938 -10.46484375 20.41210938 -11.9296875 17.82421875 C-12.89428581 16.18017711 -13.94267059 14.58599412 -15 13 C-14.38125 12.4225 -13.7625 11.845 -13.125 11.25 C-11.18652947 9.19750179 -10.09985751 7.56633418 -9 5 C-8.34 6.65 -7.68 8.3 -7 10 C-6.34 10 -5.68 10 -5 10 C-4.34 7.69 -3.68 5.38 -3 3 C-2.01 3 -1.02 3 0 3 C0 2.01 0 1.02 0 0 Z " fill="#FAA612" transform="translate(254,305)"/>
<path d="M0 0 C2.31 0.33 4.62 0.66 7 1 C7.33 1.99 7.66 2.98 8 4 C8.556875 3.855625 9.11375 3.71125 9.6875 3.5625 C12.11384195 2.97230872 14.54906345 2.476571 17 2 C16.34 2.66 15.68 3.32 15 4 C14.39557416 6.09766105 14.39557416 6.09766105 14 8.4375 C13.39542947 11.71405634 12.913029 13.1304565 11 16 C9.35 15.67 7.7 15.34 6 15 C6 10.71 6 6.42 6 2 C0.11785113 3.17504209 0.11785113 3.17504209 -1 6 C-0.67 4.02 -0.34 2.04 0 0 Z " fill="#FBA515" transform="translate(207,302)"/>
<path d="M0 0 C0.15639125 5.06316683 -0.37233929 9.50398438 -1.5 14.4375 C-1.7784375 15.67371094 -2.056875 16.90992188 -2.34375 18.18359375 C-2.5603125 19.11300781 -2.776875 20.04242188 -3 21 C-4.32 21.33 -5.64 21.66 -7 22 C-8.36920346 17.49542774 -7.52501966 13.85632837 -6.6875 9.3125 C-6.55666016 8.52810547 -6.42582031 7.74371094 -6.29101562 6.93554688 C-5.93442324 4.94241938 -5.47482174 2.96831391 -5 1 C-3 0 -3 0 0 0 Z " fill="#871200" transform="translate(277,309)"/>
<path d="M0 0 C2.1640625 -0.29296875 2.1640625 -0.29296875 4.625 -0.1875 C5.44226563 -0.16042969 6.25953125 -0.13335937 7.1015625 -0.10546875 C8.04128906 -0.05326172 8.04128906 -0.05326172 9 0 C9.33 0.99 9.66 1.98 10 3 C9.34 3 8.68 3 8 3 C8 3.66 8 4.32 8 5 C8.845625 5.04898437 9.69125 5.09796875 10.5625 5.1484375 C16.20387752 5.52025556 21.51048496 5.96063301 26.9453125 7.5234375 C31.21783806 8.5144035 35.6335927 8.69499361 40 9 C40 9.33 40 9.66 40 10 C30.93769767 10.24419378 22.32269874 9.60654103 13.375 8.1875 C11.64056641 7.9390332 11.64056641 7.9390332 9.87109375 7.68554688 C8.76636719 7.51474609 7.66164062 7.34394531 6.5234375 7.16796875 C5.53263184 7.01610107 4.54182617 6.8642334 3.52099609 6.70776367 C0.81848238 5.94903936 -0.25690631 5.1539921 -2 3 C-1.34 2.01 -0.68 1.02 0 0 Z " fill="#E2360F" transform="translate(157,283)"/>
<path d="M0 0 C3.12290635 0.48578543 5.99580359 0.9986012 9 2 C8.88652381 3.97986082 8.7589065 5.95891598 8.625 7.9375 C8.55539063 9.03964844 8.48578125 10.14179688 8.4140625 11.27734375 C8.27742187 12.17582031 8.14078125 13.07429688 8 14 C7.01 14.495 7.01 14.495 6 15 C5.67 13.35 5.34 11.7 5 10 C4.5875 10.495 4.175 10.99 3.75 11.5 C2 13 2 13 -2 13 C-2 11.68 -2 10.36 -2 9 C-0.35 9 1.3 9 3 9 C3 8.34 3 7.68 3 7 C1.68 6.34 0.36 5.68 -1 5 C-0.67 3.35 -0.34 1.7 0 0 Z " fill="#8A1302" transform="translate(193,304)"/>
<path d="M0 0 C0.061875 1.19625 0.12375 2.3925 0.1875 3.625 C0.5764415 7.01178295 1.3119704 8.75115915 3.625 11.25 C4.40875 12.1575 5.1925 13.065 6 14 C5.8125 16.375 5.8125 16.375 5 18 C1.51470237 17.74182981 0.78534272 16.75978828 -1.625 14.0625 C-2.40875 13.051875 -3.1925 12.04125 -4 11 C-4.66 10.34 -5.32 9.68 -6 9 C-5.34 8.34 -4.68 7.68 -4 7 C-4.2784375 6.0409375 -4.2784375 6.0409375 -4.5625 5.0625 C-4.7790625 4.0415625 -4.7790625 4.0415625 -5 3 C-3.38441968 0.84589291 -2.74502455 0 0 0 Z " fill="#991F09" transform="translate(290,316)"/>
<path d="M0 0 C2 3 2 3 2.375 4.875 C2.91521189 7.2433459 2.91521189 7.2433459 5.125 9.5 C7 12 7 12 6.75 14.3125 C6.5025 14.869375 6.255 15.42625 6 16 C3.66471585 15.82701599 2.30822418 15.29774631 0.62109375 13.66796875 C-3 9.42788462 -3 9.42788462 -3 7 C-3.66 7 -4.32 7 -5 7 C-4.60196439 4.11424181 -4.20990931 3.17810487 -1.9375 1.25 C-1.298125 0.8375 -0.65875 0.425 0 0 Z " fill="#830800" transform="translate(238,313)"/>
<path d="M0 0 C0.86931152 0.01047363 1.73862305 0.02094727 2.63427734 0.03173828 C3.57529297 0.03818359 4.51630859 0.04462891 5.48583984 0.05126953 C6.47068359 0.06802734 7.45552734 0.08478516 8.47021484 0.10205078 C9.46279297 0.11107422 10.45537109 0.12009766 11.47802734 0.12939453 C13.93399618 0.15300962 16.38948653 0.18594279 18.84521484 0.22705078 C20.36342177 3.7834804 21.06730275 6.34051251 20.84521484 10.22705078 C21.60833984 9.87642578 22.37146484 9.52580078 23.15771484 9.16455078 C28.21276745 7.87936792 32.72166054 8.55241908 37.84521484 9.22705078 C37.84521484 9.55705078 37.84521484 9.88705078 37.84521484 10.22705078 C28.93521484 11.21705078 28.93521484 11.21705078 19.84521484 12.22705078 C17.59521484 5.47705078 17.59521484 5.47705078 17.84521484 1.22705078 C16.62833984 1.39205078 15.41146484 1.55705078 14.15771484 1.72705078 C8.05984225 2.41866253 1.97334247 2.31229521 -4.15478516 2.22705078 C-2.15478516 0.22705078 -2.15478516 0.22705078 0 0 Z " fill="#ECB124" transform="translate(276.15478515625,218.77294921875)"/>
<path d="M0 0 C0.5775 0.226875 1.155 0.45375 1.75 0.6875 C0.986875 1.244375 0.22375 1.80125 -0.5625 2.375 C-4.86542715 6.5556849 -5.2313109 13.03087678 -6.25 18.6875 C-6.58 18.6875 -6.91 18.6875 -7.25 18.6875 C-7.25 15.7175 -7.25 12.7475 -7.25 9.6875 C-7.8275 10.656875 -8.405 11.62625 -9 12.625 C-11.25 15.6875 -11.25 15.6875 -13.5 16.5625 C-14.0775 16.60375 -14.655 16.645 -15.25 16.6875 C-14.63125 15.965625 -14.0125 15.24375 -13.375 14.5 C-10.04279806 10.08973272 -9.00821768 6.12139334 -8.25 0.6875 C-7.59 1.3475 -6.93 2.0075 -6.25 2.6875 C-5.38375 1.9140625 -5.38375 1.9140625 -4.5 1.125 C-2.25 -0.3125 -2.25 -0.3125 0 0 Z " fill="#FAA315" transform="translate(234.25,306.3125)"/>
<path d="M0 0 C0.74991211 0.03440186 1.49982422 0.06880371 2.27246094 0.10424805 C3.10616211 0.14235596 3.93986328 0.18046387 4.79882812 0.21972656 C5.6924707 0.26798584 6.58611328 0.31624512 7.50683594 0.3659668 C8.40821289 0.41229248 9.30958984 0.45861816 10.23828125 0.50634766 C17.34123706 0.91242995 24.25974245 1.73831966 31.25683594 3.0534668 C31.25683594 3.3834668 31.25683594 3.7134668 31.25683594 4.0534668 C28.17455884 4.2800258 25.09113433 4.48150144 22.00683594 4.6784668 C21.13414062 4.74291992 20.26144531 4.80737305 19.36230469 4.8737793 C18.51796875 4.9253418 17.67363281 4.9769043 16.80371094 5.0300293 C16.02866211 5.08239746 15.25361328 5.13476562 14.45507812 5.1887207 C11.93306784 5.03354593 10.45674788 4.24950758 8.25683594 3.0534668 C5.73554349 2.73938708 5.73554349 2.73938708 3.13183594 2.8034668 C2.26300781 2.79831055 1.39417969 2.7931543 0.49902344 2.7878418 C-1.94520293 2.8428327 -1.94520293 2.8428327 -3.74316406 5.0534668 C-2.62020619 0.08036767 -2.62020619 0.08036767 0 0 Z " fill="#D1402D" transform="translate(158.7431640625,280.946533203125)"/>
<path d="M0 0 C0.3671875 2.16796875 0.3671875 2.16796875 0 5 C-1.9315864 7.02314477 -3.6877122 8.62323311 -5.875 10.3125 C-6.43058594 10.76689453 -6.98617187 11.22128906 -7.55859375 11.68945312 C-11.69055451 15 -11.69055451 15 -14 15 C-13.34 13.68 -12.68 12.36 -12 11 C-11.34 11 -10.68 11 -10 11 C-9.67 10.01 -9.34 9.02 -9 8 C-8.34 8.33 -7.68 8.66 -7 9 C-7 8.34 -7 7.68 -7 7 C-6.34 7 -5.68 7 -5 7 C-5 6.01 -5 5.02 -5 4 C-5.66 3.67 -6.32 3.34 -7 3 C-7 3.99 -7 4.98 -7 6 C-8.32 5.34 -9.64 4.68 -11 4 C-4.5 0 -4.5 0 0 0 Z " fill="#F3B11F" transform="translate(139,256)"/>
<path d="M0 0 C0.99 0.33 1.98 0.66 3 1 C2.97679687 1.94101562 2.95359375 2.88203125 2.9296875 3.8515625 C2.91164063 5.09679687 2.89359375 6.34203125 2.875 7.625 C2.85179687 8.85476563 2.82859375 10.08453125 2.8046875 11.3515625 C2.99753878 14.95402434 3.74902032 17.64107031 5 21 C5 21.66 5 22.32 5 23 C-0.32098062 22.73831243 -0.32098062 22.73831243 -3 22 C-5.0625 19.5625 -5.0625 19.5625 -6 17 C-5.67 16.34 -5.34 15.68 -5 15 C-4.401875 15.825 -3.80375 16.65 -3.1875 17.5 C-2.465625 18.325 -1.74375 19.15 -1 20 C-0.01 20 0.98 20 2 20 C1.38545304 16.00544473 -0.70646737 13.25533664 -3 10 C-2.319375 9.46375 -1.63875 8.9275 -0.9375 8.375 C1.38259327 6.08837848 1.38259327 6.08837848 0.75 2.75 C0.5025 1.8425 0.255 0.935 0 0 Z " fill="#F8A116" transform="translate(293,313)"/>
<path d="M0 0 C0.66 0 1.32 0 2 0 C2.04254356 1.99954746 2.04080783 4.00041636 2 6 C1 7 1 7 -2.5 7.4375 C-4.2325 7.7159375 -4.2325 7.7159375 -6 8 C-6.33 8.66 -6.66 9.32 -7 10 C-4.03 10 -1.06 10 2 10 C2 10.66 2 11.32 2 12 C-1.3 11.67 -4.6 11.34 -8 11 C-7.4260261 15.20180184 -7.4260261 15.20180184 -4 17 C-7 18 -7 18 -9.1875 17.0625 C-10.0846875 16.5365625 -10.0846875 16.5365625 -11 16 C-11.46233492 12.0239197 -11.30954571 10.43148796 -8.9375 7.125 C-5.34962488 4.52951587 -3.3322929 4.5752654 1 5 C0.67 3.35 0.34 1.7 0 0 Z " fill="#F1951D" transform="translate(265,306)"/>
<path d="M0 0 C11.52164009 -0.18451025 11.52164009 -0.18451025 17 1 C17 1.33 17 1.66 17 2 C13.04 2 9.08 2 5 2 C4.67 3.65 4.34 5.3 4 7 C-0.65244014 9.32622007 -7.0737581 7.98524838 -12 7 C-12 6.67 -12 6.34 -12 6 C-11.22914063 6.02320313 -10.45828125 6.04640625 -9.6640625 6.0703125 C-8.15972656 6.09738281 -8.15972656 6.09738281 -6.625 6.125 C-5.62726563 6.14820313 -4.62953125 6.17140625 -3.6015625 6.1953125 C-0.83737827 6.27216848 -0.83737827 6.27216848 1 4 C0.34 3.34 -0.32 2.68 -1 2 C-0.67 1.34 -0.34 0.68 0 0 Z " fill="#D6332D" transform="translate(304,275)"/>
<path d="M0 0 C12.76945698 0.43435929 25.35210155 1.13361957 38 3 C38 3.33 38 3.66 38 4 C25.1856375 4.2785731 12.72785603 3.48801657 0 2 C0 1.34 0 0.68 0 0 Z " fill="#D1BB28" transform="translate(248,297)"/>
<path d="M0 0 C0.72680969 0.0028299 1.45361938 0.00565979 2.20245361 0.00857544 C4.51534751 0.01973727 6.82784888 0.04483399 9.140625 0.0703125 C10.71223398 0.08034749 12.28384904 0.08947244 13.85546875 0.09765625 C17.70067122 0.11966346 21.54558164 0.15416535 25.390625 0.1953125 C25.390625 0.5253125 25.390625 0.8553125 25.390625 1.1953125 C24.4620166 1.22036865 23.5334082 1.2454248 22.57666016 1.27124023 C19.13626696 1.36629182 15.69604787 1.46552957 12.25585938 1.56762695 C10.76599859 1.61097839 9.27608805 1.65265334 7.78613281 1.69262695 C5.64633173 1.75032465 3.50678115 1.81402005 1.3671875 1.87890625 C0.07893066 1.91556396 -1.20932617 1.95222168 -2.53662109 1.98999023 C-5.5221432 1.99061925 -5.5221432 1.99061925 -7.609375 3.1953125 C-7.8775 3.8346875 -8.145625 4.4740625 -8.421875 5.1328125 C-10.00179241 7.87687958 -11.6608956 8.26421374 -14.609375 9.1953125 C-12.15641801 2.57232863 -12.15641801 2.57232863 -10.01953125 1.09960938 C-6.68744933 -0.1505964 -3.50673392 -0.05162443 0 0 Z " fill="#A36E28" transform="translate(164.609375,235.8046875)"/>
<path d="M0 0 C4.62 0 9.24 0 14 0 C14 0.33 14 0.66 14 1 C10.7 1.66 7.4 2.32 4 3 C7.31544299 4.10514766 10.20410111 4.32107631 13.6875 4.5625 C15.45673828 4.68818359 15.45673828 4.68818359 17.26171875 4.81640625 C18.61716797 4.90728516 18.61716797 4.90728516 20 5 C20 5.33 20 5.66 20 6 C17.24973583 6.05404449 14.50053797 6.09369306 11.75 6.125 C10.97269531 6.14175781 10.19539063 6.15851563 9.39453125 6.17578125 C2.27568856 6.23662606 2.27568856 6.23662606 -1 4 C-0.67 2.68 -0.34 1.36 0 0 Z " fill="#63A754" transform="translate(249,292)"/>
<path d="M0 0 C-1.3418344 4.02550319 -3.4227573 4.88285636 -7 7 C-7.66 7 -8.32 7 -9 7 C-9.33 6.01 -9.66 5.02 -10 4 C-12.64 3.67 -15.28 3.34 -18 3 C-18 2.67 -18 2.34 -18 2 C-15.75256955 1.46818825 -13.50192898 0.94992874 -11.25 0.4375 C-9.99703125 0.14746094 -8.7440625 -0.14257812 -7.453125 -0.44140625 C-4.40526252 -0.93444283 -2.82358172 -1.07666879 0 0 Z " fill="#F3B11D" transform="translate(133,250)"/>
<path d="M0 0 C0.66 0 1.32 0 2 0 C2.625 2.375 2.625 2.375 3 5 C2.34 5.66 1.68 6.32 1 7 C0.83322718 10.58343976 0.83322718 10.58343976 1 14 C1.33 14 1.66 14 2 14 C1.67 17.3 1.34 20.6 1 24 C0.67 24 0.34 24 0 24 C0 22.02 0 20.04 0 18 C-0.66 18 -1.32 18 -2 18 C-2 18.99 -2 19.98 -2 21 C-2.66 20.67 -3.32 20.34 -4 20 C-2.68 13.4 -1.36 6.8 0 0 Z " fill="#F6A019" transform="translate(277,310)"/>
<path d="M0 0 C1.875 0.25 1.875 0.25 4 1 C6.000469 4.09613223 6.26953189 6.74078083 6.4375 10.375 C6.77355271 15.02372919 7.55066033 18.05975792 10 22 C8.02 21.67 6.04 21.34 4 21 C4 17.37 4 13.74 4 10 C2.35 11.65 0.7 13.3 -1 15 C-1 13.68 -1 12.36 -1 11 C-0.01 10.34 0.98 9.68 2 9 C2.43132515 4.94554358 2.30019361 3.45029042 0 0 Z " fill="#FCA41D" transform="translate(202,301)"/>
<path d="M0 0 C0.99 0.33 1.98 0.66 3 1 C2.67 1.99 2.34 2.98 2 4 C1.34 4 0.68 4 0 4 C0 4.66 0 5.32 0 6 C-0.66 6 -1.32 6 -2 6 C-3.7143618 7.95927063 -5.38405168 9.95880212 -7 12 C-8.32 11.67 -9.64 11.34 -11 11 C-9.79618552 8.50638429 -8.54571278 6.31856917 -7 4 C-6.01 4 -5.02 4 -4 4 C-4 3.34 -4 2.68 -4 2 C-2.68 2.33 -1.36 2.66 0 3 C0 2.01 0 1.02 0 0 Z " fill="#FAAF03" transform="translate(132,259)"/>
<path d="M0 0 C0.79664063 1.01320313 0.79664063 1.01320313 1.609375 2.046875 C1.279375 2.706875 0.949375 3.366875 0.609375 4.046875 C-1.700625 4.046875 -4.010625 4.046875 -6.390625 4.046875 C-6.390625 3.386875 -6.390625 2.726875 -6.390625 2.046875 C-8.700625 2.046875 -11.010625 2.046875 -13.390625 2.046875 C-13.720625 1.386875 -14.050625 0.726875 -14.390625 0.046875 C-12.48023448 -0.39768128 -10.56181845 -0.80785553 -8.640625 -1.203125 C-7.57328125 -1.43515625 -6.5059375 -1.6671875 -5.40625 -1.90625 C-2.390625 -1.953125 -2.390625 -1.953125 0 0 Z " fill="#57AE48" transform="translate(183.390625,274.953125)"/>
<path d="M0 0 C10.55808656 -0.3690205 10.55808656 -0.3690205 15 2 C15 3.32 15 4.64 15 6 C12.03 6 9.06 6 6 6 C6.66 4.68 7.32 3.36 8 2 C7.05125 2.04125 6.1025 2.0825 5.125 2.125 C2 2 2 2 0 0 Z " fill="#60A64B" transform="translate(264,293)"/>
<path d="M0 0 C0.99 1.32 1.98 2.64 3 4 C3.66 3.67 4.32 3.34 5 3 C5.33 3.99 5.66 4.98 6 6 C6.99 6.66 7.98 7.32 9 8 C8.34 9.32 7.68 10.64 7 12 C3.34683329 10.75023244 2.21934164 10.32901247 0 7 C-0.07905064 4.66800612 -0.08798769 2.33167378 0 0 Z " fill="#8C1700" transform="translate(249,316)"/>
<path d="M0 0 C0.33 0 0.66 0 1 0 C1 2.31 1 4.62 1 7 C0.01 7.33 -0.98 7.66 -2 8 C-1.67 8.99 -1.34 9.98 -1 11 C-0.34 11.33 0.32 11.66 1 12 C0.34 13.65 -0.32 15.3 -1 17 C-1.66 17 -2.32 17 -3 17 C-3.24900646 15.06494977 -3.47356242 13.12674066 -3.6875 11.1875 C-3.81511719 10.10855469 -3.94273437 9.02960938 -4.07421875 7.91796875 C-4 5 -4 5 -2.58203125 3.23828125 C-2.05996094 2.82964844 -1.53789062 2.42101562 -1 2 C-0.67 1.34 -0.34 0.68 0 0 Z " fill="#ECAD23" transform="translate(152,227)"/>
<path d="M0 0 C0 0.66 0 1.32 0 2 C-2.3125 3.125 -2.3125 3.125 -5 4 C-5.99 3.34 -6.98 2.68 -8 2 C-9.93455602 2.2295236 -11.86917826 2.46648763 -13.79296875 2.7734375 C-17.30848191 3.13432204 -20.52115807 2.5590996 -24 2 C-24 1.67 -24 1.34 -24 1 C-15.97667603 0.09958689 -8.07029553 -0.11547323 0 0 Z " fill="#F8A31D" transform="translate(210,292)"/>
<path d="M0 0 C6.39559286 0.60335782 6.39559286 0.60335782 9 2.3125 C10 4 10 4 9.6875 6.1875 C9.3471875 7.0846875 9.3471875 7.0846875 9 8 C6.46089803 7.61479436 5.27248877 7.29902057 3.515625 5.37109375 C3.09796875 4.73300781 2.6803125 4.09492188 2.25 3.4375 C1.82203125 2.79683594 1.3940625 2.15617187 0.953125 1.49609375 C0.48132813 0.75552734 0.48132813 0.75552734 0 0 Z " fill="#871600" transform="translate(286,326)"/>
<path d="M0 0 C2.31 0 4.62 0 7 0 C7.18451025 16.8929385 7.18451025 16.8929385 6 24 C5.67 24 5.34 24 5 24 C5 17.07 5 10.14 5 3 C3.35 2.67 1.7 2.34 0 2 C0 1.34 0 0.68 0 0 Z " fill="#F0B22D" transform="translate(328,305)"/>
<path d="M0 0 C0.56561146 5.65611463 -1.28608722 9.22642128 -4 14 C-5.13583456 10.28272326 -4.66670026 8.52948291 -3 5 C-4.32 4.67 -5.64 4.34 -7 4 C-3.375 0 -3.375 0 0 0 Z " fill="#EFB02A" transform="translate(138,265)"/>
<path d="M0 0 C0.33 0 0.66 0 1 0 C1 1.65 1 3.3 1 5 C2.32 4.34 3.64 3.68 5 3 C4.67 5.31 4.34 7.62 4 10 C2.68 10.33 1.36 10.66 0 11 C-1.05404945 7.01803543 -0.84098656 4.01804691 0 0 Z " fill="#912101" transform="translate(279,324)"/>
<path d="M0 0 C3 1 3 1 5 4 C4.625 6.1875 4.625 6.1875 4 8 C2.1875 7.8125 2.1875 7.8125 0 7 C-1.75 4.4375 -1.75 4.4375 -3 2 C-2.01 1.34 -1.02 0.68 0 0 Z " fill="#8A1400" transform="translate(240,321)"/>
<path d="M0 0 C0.99 0.33 1.98 0.66 3 1 C2.525625 1.9075 2.05125 2.815 1.5625 3.75 C-0.04384358 6.7679433 -0.04384358 6.7679433 -0.5 9.3125 C-0.665 9.869375 -0.83 10.42625 -1 11 C-1.99 11.33 -2.98 11.66 -4 12 C-4 9.36 -4 6.72 -4 4 C-2.68 3.34 -1.36 2.68 0 2 C0 1.34 0 0.68 0 0 Z " fill="#FBA60F" transform="translate(281,313)"/>
<path d="M0 0 C6.875 0.875 6.875 0.875 8 2 C7.90982004 4.19050021 7.75333792 6.378466 7.5625 8.5625 C7.46066406 9.76003906 7.35882813 10.95757812 7.25390625 12.19140625 C7.17011719 13.11824219 7.08632812 14.04507812 7 15 C6.67 15 6.34 15 6 15 C6 10.71 6 6.42 6 2 C0.11785113 3.17504209 0.11785113 3.17504209 -1 6 C-0.67 4.02 -0.34 2.04 0 0 Z " fill="#EB9110" transform="translate(207,302)"/>
<path d="M0 0 C1.61841797 0.20882813 1.61841797 0.20882813 3.26953125 0.421875 C4.89955078 0.61523438 4.89955078 0.61523438 6.5625 0.8125 C7.80966797 0.99039062 7.80966797 0.99039062 9.08203125 1.171875 C9.08203125 1.501875 9.08203125 1.831875 9.08203125 2.171875 C7.43203125 2.501875 5.78203125 2.831875 4.08203125 3.171875 C4.41203125 3.831875 4.74203125 4.491875 5.08203125 5.171875 C4.09203125 5.171875 3.10203125 5.171875 2.08203125 5.171875 C2.08203125 4.181875 2.08203125 3.191875 2.08203125 2.171875 C0.43203125 2.171875 -1.21796875 2.171875 -2.91796875 2.171875 C-2.91796875 4.151875 -2.91796875 6.131875 -2.91796875 8.171875 C-3.57796875 8.171875 -4.23796875 8.171875 -4.91796875 8.171875 C-5.60546875 6.421875 -5.60546875 6.421875 -5.91796875 4.171875 C-4.29732036 0.97688246 -3.6504766 0.21502138 0 0 Z " fill="#D0372E" transform="translate(293.91796875,272.828125)"/>
<path d="M0 0 C5.875 4.75 5.875 4.75 7 7 C7.99 7.66 8.98 8.32 10 9 C8.35 8.67 6.7 8.34 5 8 C5 7.34 5 6.68 5 6 C3.02 6.33 1.04 6.66 -1 7 C-1.04254356 5.00045254 -1.04080783 2.99958364 -1 1 C-0.67 0.67 -0.34 0.34 0 0 Z " fill="#F9A018" transform="translate(234,321)"/>
<path d="M0 0 C3.63 0 7.26 0 11 0 C11 0.33 11 0.66 11 1 C10.40832031 1.07476562 9.81664062 1.14953125 9.20703125 1.2265625 C4.8895568 1.94496771 1.89596569 2.50084056 -0.9375 6 C-1.618125 6.99 -2.29875 7.98 -3 9 C-3.66 9.66 -4.32 10.32 -5 11 C-4.125 5.25 -4.125 5.25 -3 3 C-2.01 3 -1.02 3 0 3 C0 2.01 0 1.02 0 0 Z " fill="#F89F1A" transform="translate(254,305)"/>
<path d="M0 0 C3.40312738 1.05875074 6.01353231 2.00902154 9 4 C9 4.66 9 5.32 9 6 C4.02936879 6.91297308 -0.02936879 6.91297308 -5 6 C-5 5.67 -5 5.34 -5 5 C-2.03 5 0.94 5 4 5 C4 4.34 4 3.68 4 3 C2.68 2.67 1.36 2.34 0 2 C0 1.34 0 0.68 0 0 Z " fill="#F0B42C" transform="translate(124,239)"/>
<path d="M0 0 C0.625 1.8125 0.625 1.8125 1 4 C0.01 5.485 0.01 5.485 -1 7 C-1.99 6.67 -2.98 6.34 -4 6 C-4.33 5.34 -4.66 4.68 -5 4 C-5.99 4.33 -6.98 4.66 -8 5 C-7.34 3.68 -6.68 2.36 -6 1 C-5.38125 1.20625 -4.7625 1.4125 -4.125 1.625 C-3.073125 1.810625 -3.073125 1.810625 -2 2 C-1.34 1.34 -0.68 0.68 0 0 Z " fill="#A52F0E" transform="translate(243,310)"/>
<path d="M0 0 C2.18614424 2.18614424 2.68256535 3.53879949 3.625 6.4375 C3.88539063 7.21996094 4.14578125 8.00242188 4.4140625 8.80859375 C5 11 5 11 5 14 C3.02 14 1.04 14 -1 14 C-0.01 13.01 0.98 12.02 2 11 C1.67 10.113125 1.34 9.22625 1 8.3125 C0.08777857 5.29076653 -0.18330958 3.11626294 0 0 Z " fill="#EEB02E" transform="translate(327,213)"/>
<path d="M0 0 C2.50480943 1.0546566 3.86449409 1.73424113 5.375 4 C5.0625 6.1875 5.0625 6.1875 4.375 8 C4.148125 7.360625 3.92125 6.72125 3.6875 6.0625 C2.53484463 3.79653384 2.53484463 3.79653384 0.0625 3.125 C-3.02008723 2.98162385 -4.87252969 3.66308585 -7.625 5 C-3.35670732 0 -3.35670732 0 0 0 Z " fill="#902100" transform="translate(289.625,311)"/>
<path d="M0 0 C0.33 0 0.66 0 1 0 C1 4.29 1 8.58 1 13 C0.01 13.33 -0.98 13.66 -2 14 C-2.99 12.35 -3.98 10.7 -5 9 C-4.360625 8.443125 -3.72125 7.88625 -3.0625 7.3125 C-0.80319013 4.77933439 -0.36850953 3.31658576 0 0 Z " fill="#F29E0F" transform="translate(266,319)"/>
<path d="M0 0 C6.6 0.66 13.2 1.32 20 2 C20 2.33 20 2.66 20 3 C17.2291017 3.02696009 14.4584655 3.04681952 11.6875 3.0625 C10.50897461 3.07506836 10.50897461 3.07506836 9.30664062 3.08789062 C8.54931641 3.09111328 7.79199219 3.09433594 7.01171875 3.09765625 C5.96697388 3.10551147 5.96697388 3.10551147 4.90112305 3.11352539 C3 3 3 3 0 2 C0 1.34 0 0.68 0 0 Z " fill="#7CA528" transform="translate(249,295)"/>
<path d="M0 0 C-0.33 0.99 -0.66 1.98 -1 3 C-3.5625 4.1875 -3.5625 4.1875 -6 5 C-6 4.01 -6 3.02 -6 2 C-6.66 1.34 -7.32 0.68 -8 0 C-4.94736336 -0.98120464 -3.05263664 -0.98120464 0 0 Z " fill="#EDB22A" transform="translate(133,250)"/>
<path d="M0 0 C1.32 0.66 2.64 1.32 4 2 C3.01 2.495 3.01 2.495 2 3 C2.309375 4.11375 2.309375 4.11375 2.625 5.25 C3.04408751 8.32330841 2.61949011 9.42786866 1 12 C-1.83022097 8.00439392 -0.76210446 4.57262677 0 0 Z " fill="#835F3E" transform="translate(148,244)"/>
<path d="M0 0 C-0.33 2.64 -0.66 5.28 -1 8 C-1.99 8 -2.98 8 -4 8 C-4.1875 5.125 -4.1875 5.125 -4 2 C-1 0 -1 0 0 0 Z " fill="#FBAF04" transform="translate(219,309)"/>
<path d="M0 0 C0.66 0 1.32 0 2 0 C2 0.66 2 1.32 2 2 C4.31 2 6.62 2 9 2 C6.3144406 4.6855594 3.62378672 5.06049974 0 6 C0 4.02 0 2.04 0 0 Z " fill="#F3AE18" transform="translate(114,255)"/>
<path d="M0 0 C1.32 0.66 2.64 1.32 4 2 C3.67 3.65 3.34 5.3 3 7 C2.01 7 1.02 7 0 7 C-1.125 2.25 -1.125 2.25 0 0 Z " fill="#F9AF15" transform="translate(217,209)"/>
<path d="M0 0 C4 0 4 0 7 1 C6.34 2.65 5.68 4.3 5 6 C3.0625 5.25 3.0625 5.25 1 4 C0.25 1.875 0.25 1.875 0 0 Z " fill="#FDB013" transform="translate(274,204)"/>
<path d="M0 0 C2.97 0.495 2.97 0.495 6 1 C6.33 1.99 6.66 2.98 7 4 C4.69 4 2.38 4 0 4 C0 2.68 0 1.36 0 0 Z " fill="#F2951A" transform="translate(193,304)"/>
<path d="M0 0 C2.31 0 4.62 0 7 0 C6.01 0.495 6.01 0.495 5 1 C4.67 1.99 4.34 2.98 4 4 C2.35 3.67 0.7 3.34 -1 3 C-0.67 2.01 -0.34 1.02 0 0 Z " fill="#E92A24" transform="translate(157,283)"/>
<path d="M0 0 C1.32 0.33 2.64 0.66 4 1 C2.9024777 3.99324263 2.32317108 4.84610901 -0.625 6.25 C-1.40875 6.4975 -2.1925 6.745 -3 7 C-2.01 4.69 -1.02 2.38 0 0 Z " fill="#9A6632" transform="translate(153,238)"/>
<path d="M0 0 C1.3357457 3.77371512 0.72408671 6.85831347 0.0625 10.75 C-0.13214844 11.92046875 -0.32679688 13.0909375 -0.52734375 14.296875 C-0.68332031 15.18890625 -0.83929688 16.0809375 -1 17 C-1.33 17 -1.66 17 -2 17 C-2.05398987 14.72942623 -2.09278742 12.45848712 -2.125 10.1875 C-2.14820313 8.92292969 -2.17140625 7.65835937 -2.1953125 6.35546875 C-2 3 -2 3 0 0 Z " fill="#F59B1A" transform="translate(271,310)"/>
<path d="M0 0 C1.423125 0.37125 1.423125 0.37125 2.875 0.75 C3.205 1.41 3.535 2.07 3.875 2.75 C2.7303125 2.7190625 2.7303125 2.7190625 1.5625 2.6875 C-1.22685786 2.62057159 -1.22685786 2.62057159 -4.125 3.75 C-4.785 3.09 -5.445 2.43 -6.125 1.75 C-3.125 -0.25 -3.125 -0.25 0 0 Z " fill="#8F2000" transform="translate(239.125,306.25)"/>
<path d="M0 0 C0.66 0 1.32 0 2 0 C2 0.66 2 1.32 2 2 C3.32 1.67 4.64 1.34 6 1 C6 1.99 6 2.98 6 4 C5.34 4 4.68 4 4 4 C4 4.66 4 5.32 4 6 C2.68 6 1.36 6 0 6 C0 4.02 0 2.04 0 0 Z " fill="#FBAE04" transform="translate(123,284)"/>
<path d="M0 0 C0 2.83967231 -0.40267181 5.23735711 -1 8 C-2.65 8 -4.3 8 -6 8 C-4.55746343 4.63408134 -2.66735273 2.48952921 0 0 Z " fill="#EFB225" transform="translate(187,172)"/>
<path d="M0 0 C-0.66 1.98 -1.32 3.96 -2 6 C-2.99 6 -3.98 6 -5 6 C-5 4.68 -5 3.36 -5 2 C-2 0 -2 0 0 0 Z " fill="#7E0401" transform="translate(255,314)"/>
<path d="M0 0 C2.3125 0.1875 2.3125 0.1875 5 1 C6.8125 3.5625 6.8125 3.5625 8 6 C7.01 6.33 6.02 6.66 5 7 C5 6.01 5 5.02 5 4 C4.01 3.67 3.02 3.34 2 3 C1.34 2.01 0.68 1.02 0 0 Z " fill="#CF4531" transform="translate(191,285)"/>
<path d="M0 0 C2.64 0.33 5.28 0.66 8 1 C8 1.66 8 2.32 8 3 C5.69 3.33 3.38 3.66 1 4 C0.67 2.68 0.34 1.36 0 0 Z " fill="#59AC4E" transform="translate(158,274)"/>
<path d="M0 0 C2.125 0.375 2.125 0.375 4 1 C4 2.32 4 3.64 4 5 C2.35 5 0.7 5 -1 5 C-1.33 4.01 -1.66 3.02 -2 2 C-1.34 1.34 -0.68 0.68 0 0 Z " fill="#FBAF03" transform="translate(127,228)"/>
<path d="M0 0 C2.475 0.99 2.475 0.99 5 2 C5 3.32 5 4.64 5 6 C3.35 5.67 1.7 5.34 0 5 C0 3.35 0 1.7 0 0 Z " fill="#FCB612" transform="translate(256,176)"/>
<path d="M0 0 C0.33 2.31 0.66 4.62 1 7 C-1 6 -1 6 -3 3 C-3.66 3.66 -4.32 4.32 -5 5 C-5.33 4.01 -5.66 3.02 -6 2 C-3 0 -3 0 0 0 Z " fill="#FCB114" transform="translate(235,177)"/>
<path d="M0 0 C2.31 0 4.62 0 7 0 C5.71034824 1.37562854 4.37310707 2.70766393 3 4 C2.34 4 1.68 4 1 4 C0.67 2.68 0.34 1.36 0 0 Z " fill="#F8A016" transform="translate(212,323)"/>
<path d="M0 0 C0.66 0 1.32 0 2 0 C3 1.66666667 4 3.33333333 5 5 C5.66 5 6.32 5 7 5 C7 5.99 7 6.98 7 8 C6.01 8.33 5.02 8.66 4 9 C3.3309224 7.68872739 2.66480194 6.3759455 2 5.0625 C1.62875 4.33160156 1.2575 3.60070312 0.875 2.84765625 C0 1 0 1 0 0 Z " fill="#F0B226" transform="translate(153,310)"/>
<path d="M0 0 C2.31 0 4.62 0 7 0 C7 1.98 7 3.96 7 6 C6.34 5.67 5.68 5.34 5 5 C5 4.34 5 3.68 5 3 C3.35 2.67 1.7 2.34 0 2 C0 1.34 0 0.68 0 0 Z " fill="#ECAA33" transform="translate(328,305)"/>
<path d="M0 0 C-3.28463659 2.18975773 -6.20696275 2.99806563 -10 4 C-10 3.01 -10 2.02 -10 1 C-6.52674819 -0.1577506 -3.63932552 -0.06866652 0 0 Z " fill="#F3AF24" transform="translate(114,261)"/>
<path d="M0 0 C0.33 0.66 0.66 1.32 1 2 C0.22265625 4.1640625 0.22265625 4.1640625 -0.9375 6.625 C-1.31777344 7.44226563 -1.69804687 8.25953125 -2.08984375 9.1015625 C-2.39019531 9.72804688 -2.69054687 10.35453125 -3 11 C-4 9 -4 9 -3.1875 6.0625 C-2 3 -2 3 0 0 Z " fill="#F0B223" transform="translate(332,331)"/>
<path d="M0 0 C0 0.99 0 1.98 0 3 C-2.31 2.67 -4.62 2.34 -7 2 C-7 1.34 -7 0.68 -7 0 C-3.98968256 -0.93423645 -3.13349732 -1.04449911 0 0 Z " fill="#F8B712" transform="translate(205,164)"/>
<path d="M0 0 C1.32 0 2.64 0 4 0 C2.95125002 2.62187494 2.35068687 3.79371361 -0.125 5.25 C-0.74375 5.4975 -1.3625 5.745 -2 6 C-2 5.01 -2 4.02 -2 3 C-1.34 2.67 -0.68 2.34 0 2 C0 1.34 0 0.68 0 0 Z " fill="#F2B521" transform="translate(324,342)"/>
<path d="M0 0 C1.65 0 3.3 0 5 0 C5 0.99 5 1.98 5 3 C3.68 3.33 2.36 3.66 1 4 C0.67 2.68 0.34 1.36 0 0 Z " fill="#800200" transform="translate(257,307)"/>
<path d="M0 0 C2.475 0.495 2.475 0.495 5 1 C4.67 1.99 4.34 2.98 4 4 C2.68 4 1.36 4 0 4 C0 2.68 0 1.36 0 0 Z " fill="#F69228" transform="translate(191,313)"/>
<path d="" fill="#050505" transform="translate(0,0)"/>
<path d="" fill="#FFFFFF" transform="translate(0,0)"/>
<path d="" fill="#FFFFFF" transform="translate(0,0)"/>
<path d="" fill="#FFFFFF" transform="translate(0,0)"/>
<path d="" fill="#FFFFFF" transform="translate(0,0)"/>
<path d="" fill="#FFFFFF" transform="translate(0,0)"/>
<path d="" fill="#FFFFFF" transform="translate(0,0)"/>
<path d="" fill="#FFFFFF" transform="translate(0,0)"/>
<path d="" fill="#FFFFFF" transform="translate(0,0)"/>
<path d="" fill="#FFFFFF" transform="translate(0,0)"/>
<path d="" fill="#FFFFFF" transform="translate(0,0)"/>
<path d="" fill="#FFFFFF" transform="translate(0,0)"/>
<path d="" fill="#FFFFFF" transform="translate(0,0)"/>
<path d="" fill="#FFFFFF" transform="translate(0,0)"/>
<path d="" fill="#FFFFFF" transform="translate(0,0)"/>
<path d="" fill="#FFFFFF" transform="translate(0,0)"/>
<path d="" fill="#FFFFFF" transform="translate(0,0)"/>
<path d="" fill="#FFFFFF" transform="translate(0,0)"/>
<path d="" fill="#FFFFFF" transform="translate(0,0)"/>
<path d="" fill="#FFFFFF" transform="translate(0,0)"/>
<path d="" fill="#FFFFFF" transform="translate(0,0)"/>
<path d="" fill="#FFFFFF" transform="translate(0,0)"/>
<path d="" fill="#FFFFFF" transform="translate(0,0)"/>
<path d="" fill="#FFFFFF" transform="translate(0,0)"/>
<path d="" fill="#FFFFFF" transform="translate(0,0)"/>
<path d="" fill="#FFFFFF" transform="translate(0,0)"/>
<path d="" fill="#FFFFFF" transform="translate(0,0)"/>
<path d="" fill="#FFFFFF" transform="translate(0,0)"/>
<path d="" fill="#FFFFFF" transform="translate(0,0)"/>
<path d="" fill="#FFFFFF" transform="translate(0,0)"/>
<path d="" fill="#FFFFFF" transform="translate(0,0)"/>
<path d="" fill="#FFFFFF" transform="translate(0,0)"/>
<path d="" fill="#FFFFFF" transform="translate(0,0)"/>
<path d="" fill="#FFFFFF" transform="translate(0,0)"/>
<path d="" fill="#FFFFFF" transform="translate(0,0)"/>
<path d="" fill="#FFFFFF" transform="translate(0,0)"/>
<path d="" fill="#FFFFFF" transform="translate(0,0)"/>
<path d="" fill="#FFFFFF" transform="translate(0,0)"/>
<path d="" fill="#FFFFFF" transform="translate(0,0)"/>
<path d="" fill="#FFFFFF" transform="translate(0,0)"/>
<path d="" fill="#FFFFFF" transform="translate(0,0)"/>
<path d="" fill="#FFFFFF" transform="translate(0,0)"/>
<path d="" fill="#FFFFFF" transform="translate(0,0)"/>
<path d="" fill="#FFFFFF" transform="translate(0,0)"/>
<path d="" fill="#FFFFFF" transform="translate(0,0)"/>
<path d="" fill="#FFFFFF" transform="translate(0,0)"/>
<path d="" fill="#FFFFFF" transform="translate(0,0)"/>
<path d="" fill="#FFFFFF" transform="translate(0,0)"/>
<path d="" fill="#FFFFFF" transform="translate(0,0)"/>
<path d="" fill="#FFFFFF" transform="translate(0,0)"/>
<path d="" fill="#FFFFFF" transform="translate(0,0)"/>
<path d="" fill="#FFFFFF" transform="translate(0,0)"/>
<path d="" fill="#FFFFFF" transform="translate(0,0)"/>
<path d="" fill="#FFFFFF" transform="translate(0,0)"/>
<path d="" fill="#FFFFFF" transform="translate(0,0)"/>
<path d="" fill="#FFFFFF" transform="translate(0,0)"/>
<path d="" fill="#FFFFFF" transform="translate(0,0)"/>
<path d="" fill="#FFFFFF" transform="translate(0,0)"/>
<path d="" fill="#FFFFFF" transform="translate(0,0)"/>
<path d="" fill="#FFFFFF" transform="translate(0,0)"/>
<path d="" fill="#FFFFFF" transform="translate(0,0)"/>
<path d="" fill="#FFFFFF" transform="translate(0,0)"/>
<path d="" fill="#FFFFFF" transform="translate(0,0)"/>
<path d="" fill="#FFFFFF" transform="translate(0,0)"/>
<path d="" fill="#FFFFFF" transform="translate(0,0)"/>
<path d="" fill="#FFFFFF" transform="translate(0,0)"/>
<path d="" fill="#FFFFFF" transform="translate(0,0)"/>
<path d="" fill="#FFFFFF" transform="translate(0,0)"/>
<path d="" fill="#FFFFFF" transform="translate(0,0)"/>
<path d="" fill="#FFFFFF" transform="translate(0,0)"/>
<path d="" fill="#FFFFFF" transform="translate(0,0)"/>
<path d="" fill="#FFFFFF" transform="translate(0,0)"/>
<path d="" fill="#FFFFFF" transform="translate(0,0)"/>
<path d="" fill="#FFFFFF" transform="translate(0,0)"/>
<path d="" fill="#FFFFFF" transform="translate(0,0)"/>
<path d="" fill="#FFFFFF" transform="translate(0,0)"/>
</svg>
